<svg width="286" height="200" viewBox="0 0 286 200" fill="none" xmlns="http://www.w3.org/2000/svg">
<mask id="path-1-inside-1_1_59" fill="white">
<path d="M0 29C0 12.9837 12.9837 0 29 0H249.283C265.3 0 278.283 12.9837 278.283 29V171C278.283 187.016 265.3 200 249.283 200H29C12.9838 200 0 187.016 0 171V29Z"/>
</mask>
<path d="M-11 29C-11 6.90861 6.90861 -11 29 -11H249.283C265.852 -11 279.283 2.43146 279.283 19L277.283 29C277.283 19.0589 264.747 11 249.283 11H29C19.0589 11 11 19.0589 11 29H-11ZM279.283 181C279.283 197.569 265.852 211 249.283 211H29C6.90861 211 -11 193.091 -11 171H11C11 180.941 19.0589 189 29 189H249.283C264.747 189 277.283 180.941 277.283 171L279.283 181ZM29 211C6.90861 211 -11 193.091 -11 171V29C-11 6.90861 6.90861 -11 29 -11V11C19.0589 11 11 19.0589 11 29V171C11 180.941 19.0589 189 29 189V211ZM249.283 -11C265.852 -11 279.283 2.43146 279.283 19V181C279.283 197.569 265.852 211 249.283 211V189C264.747 189 277.283 180.941 277.283 171V29C277.283 19.0589 264.747 11 249.283 11V-11Z" fill="#398E8A" mask="url(#path-1-inside-1_1_59)"/>
<path d="M142.213 6.49631H251C267.016 6.49631 280 19.48 280 35.4963V164.967C280 180.984 267.016 193.967 251 193.967H142.213" stroke="#074643" stroke-width="11"/>
</svg>
